<svg width="86" height="86" viewBox="0 0 86 86" fill="none" xmlns="http://www.w3.org/2000/svg">
<circle cx="43" cy="43" r="43" fill="white"/>
<path d="M43 68C56.8071 68 68 56.8071 68 43C68 29.1929 56.8071 18 43 18C29.1929 18 18 29.1929 18 43C18 56.8071 29.1929 68 43 68Z" fill="url(#paint0_linear_1876_154)"/>
<path fill-rule="evenodd" clip-rule="evenodd" d="M29.303 42.7294C36.5886 39.5654 41.4387 37.463 43.8742 36.443C50.8059 33.5495 52.2631 33.05 53.1998 33.0291C53.4079 33.0291 53.8659 33.0708 54.1781 33.3206C54.4279 33.5287 54.4904 33.7993 54.532 34.0075C54.5736 34.2157 54.6153 34.6528 54.5736 34.9858C54.1989 38.9409 52.5753 48.5371 51.7427 52.95C51.3888 54.8235 50.7019 55.448 50.0357 55.5104C48.5786 55.6353 47.4754 54.5529 46.0807 53.637C43.8742 52.2007 42.6461 51.3056 40.502 49.8901C38.0249 48.2664 39.6278 47.3714 41.0432 45.9142C41.4179 45.5396 47.8084 39.7111 47.9333 39.1907C47.9541 39.1282 47.9541 38.8784 47.8084 38.7535C47.6627 38.6286 47.4546 38.6703 47.288 38.7119C47.0591 38.7535 43.562 41.0849 36.7551 45.6853C35.756 46.3722 34.8609 46.7052 34.0491 46.6844C33.154 46.6636 31.4471 46.1848 30.1565 45.7685C28.5953 45.2689 27.3463 44.9983 27.4504 44.1241C27.5128 43.6661 28.1373 43.2082 29.303 42.7294Z" fill="white"/>
<defs>
<linearGradient id="paint0_linear_1876_154" x1="42.9792" y1="18" x2="42.9792" y2="67.6045" gradientUnits="userSpaceOnUse">
<stop stop-color="#BBC0CB"/>
<stop offset="1" stop-color="#BBC0CB"/>
</linearGradient>
</defs>
</svg>
