<svg width="86" height="86" viewBox="0 0 86 86" fill="none" xmlns="http://www.w3.org/2000/svg">
<circle cx="43" cy="43" r="43" fill="white"/>
<path d="M20.4609 18H65.5391C66.9062 18 68 19.0938 68 20.4609V65.5391C68 66.9062 66.9062 68 65.5391 68H20.4609C19.0938 68 18 66.9062 18 65.5391V20.4609C18 19.0938 19.0938 18 20.4609 18Z" fill="#346DA6"/>
<path d="M36.3105 54.6113V39.3086H31.5742V54.6113H36.3105ZM36.3105 33.9375C36.3105 32.5703 35.4023 31.5742 33.8496 31.5742C32.3945 31.5742 31.3887 32.5801 31.3887 33.9375C31.3887 35.3047 32.2969 36.3008 33.752 36.3008C35.3047 36.3105 36.3105 35.2168 36.3105 33.9375ZM43.957 54.6113V45.8711C43.957 45.4121 43.957 44.9629 44.1426 44.5918C44.5039 43.6836 45.3242 42.6777 46.7793 42.6777C48.6934 42.6777 49.7871 43.7715 49.7871 45.8613V54.6016H54.5234V45.6758C54.5234 40.8516 51.9746 38.6641 48.6055 38.6641C45.7832 38.6641 44.6016 40.2168 43.8691 41.3008V39.2988H39.1328C39.2207 40.7539 39.1328 54.6895 39.1328 54.6895H43.957V54.6113Z" fill="white"/>
</svg>
