<svg width="86" height="86" viewBox="0 0 86 86" fill="none" xmlns="http://www.w3.org/2000/svg">
<circle cx="43" cy="43" r="43" fill="white"/>
<path d="M43 19C29.1875 19 18 30.1875 18 44C18 55.0625 25.1562 64.4062 35.0938 67.7188C36.3438 67.9375 36.8125 67.1875 36.8125 66.5312C36.8125 65.9375 36.7812 63.9688 36.7812 61.875C30.5 63.0312 28.875 60.3438 28.375 58.9375C28.0938 58.2188 26.875 56 25.8125 55.4062C24.9375 54.9375 23.6875 53.7812 25.7812 53.75C27.75 53.7188 29.1562 55.5625 29.625 56.3125C31.875 60.0938 35.4688 59.0312 36.9062 58.375C37.125 56.75 37.7812 55.6562 38.5 55.0312C32.9375 54.4062 27.125 52.25 27.125 42.6875C27.125 39.9688 28.0938 37.7188 29.6875 35.9688C29.4375 35.3438 28.5625 32.7812 29.9375 29.3438C29.9375 29.3438 32.0312 28.6875 36.8125 31.9062C38.8125 31.3438 40.9375 31.0625 43.0625 31.0625C45.1875 31.0625 47.3125 31.3438 49.3125 31.9062C54.0938 28.6562 56.1875 29.3438 56.1875 29.3438C57.5625 32.7812 56.6875 35.3438 56.4375 35.9688C58.0312 37.7188 59 39.9375 59 42.6875C59 52.2812 53.1562 54.4062 47.5938 55.0312C48.5 55.8125 49.2812 57.3125 49.2812 59.6562C49.2812 63 49.25 65.6875 49.25 66.5312C49.25 67.1875 49.7188 67.9688 50.9688 67.7188C55.932 66.0437 60.2448 62.8542 63.3001 58.5992C66.3553 54.3443 67.9991 49.2382 68 44C68 30.1875 56.8125 19 43 19Z" fill="black"/>
</svg>
