<svg width="86" height="86" viewBox="0 0 86 86" fill="none" xmlns="http://www.w3.org/2000/svg">
<circle cx="43" cy="43" r="43" fill="white"/>
<path d="M67.1677 38.0605L67.0975 37.8809L60.2921 20.1202C60.1536 19.7721 59.9084 19.4768 59.5917 19.2767C59.2748 19.08 58.9052 18.9852 58.5328 19.0052C58.1603 19.0253 57.803 19.1591 57.509 19.3886C57.2183 19.6248 57.0074 19.9448 56.905 20.305L52.3099 34.3636H33.7031L29.108 20.305C29.0084 19.9428 28.797 19.6212 28.504 19.386C28.2101 19.1565 27.8527 19.0226 27.4803 19.0026C27.1078 18.9826 26.7382 19.0774 26.4213 19.2741C26.1053 19.475 25.8603 19.77 25.721 20.1176L18.9026 37.8705L18.8349 38.0501C17.8552 40.6098 17.7343 43.4186 18.4903 46.0531C19.2464 48.6875 20.8384 51.0047 23.0264 52.6554L23.0498 52.6736L23.1123 52.7179L33.4792 60.4813L38.608 64.3631L41.7321 66.7218C42.0976 66.9992 42.5438 67.1494 43.0026 67.1494C43.4614 67.1494 43.9076 66.9992 44.2731 66.7218L47.3972 64.3631L52.526 60.4813L62.9554 52.671L62.9814 52.6502C65.1645 50.9992 66.7528 48.6844 67.5077 46.0535C68.2626 43.4226 68.1433 40.6178 67.1677 38.0605Z" fill="#E24329"/>
<path d="M67.1677 38.0605L67.0974 37.8809C63.7814 38.5615 60.6567 39.9661 57.9464 41.9943L43 53.2958C48.0897 57.1463 52.5208 60.4918 52.5208 60.4918L62.9502 52.6814L62.9762 52.6606C65.1624 51.0097 66.7532 48.6934 67.5092 46.0602C68.2651 43.4271 68.1453 40.6197 67.1677 38.0605Z" fill="#FC6D26"/>
<path d="M33.4795 60.4918L38.6083 64.3735L41.7324 66.7322C42.0978 67.0097 42.544 67.1599 43.0029 67.1599C43.4617 67.1599 43.9079 67.0097 44.2734 66.7322L47.3975 64.3735L52.5263 60.4918C52.5263 60.4918 48.09 57.1359 43.0003 53.2959C37.9106 57.1359 33.4795 60.4918 33.4795 60.4918Z" fill="#FCA326"/>
<path d="M28.051 41.9943C25.3429 39.9619 22.2188 38.5537 18.9026 37.8705L18.8349 38.0501C17.8552 40.6098 17.7343 43.4186 18.4903 46.0531C19.2464 48.6875 20.8384 51.0048 23.0264 52.6554L23.0498 52.6736L23.1123 52.7179L33.4792 60.4813C33.4792 60.4813 37.9051 57.1359 43 53.2854L28.051 41.9943Z" fill="#FC6D26"/>
</svg>
