<svg width="86" height="86" viewBox="0 0 86 86" fill="none" xmlns="http://www.w3.org/2000/svg">
<circle cx="43" cy="43" r="43" fill="white"/>
<path fill-rule="evenodd" clip-rule="evenodd" d="M25.7046 18H60.2954C64.5504 18 68 21.4495 68 25.7046V60.2954C68 64.5504 64.5504 68 60.2954 68H25.7046C21.4495 68 18 64.5504 18 60.2954V25.7046C18 21.4495 21.4495 18 25.7046 18Z" fill="#4C75A3"/>
<path fill-rule="evenodd" clip-rule="evenodd" d="M42.5809 53.0016H44.6262C44.6262 53.0016 45.2438 52.9335 45.5596 52.5937C45.8499 52.2814 45.8406 51.6953 45.8406 51.6953C45.8406 51.6953 45.8006 48.9509 47.0741 48.5468C48.33 48.1484 49.9423 51.1991 51.6512 52.3722C52.9435 53.2597 53.9255 53.0654 53.9255 53.0654L58.4952 53.0016C58.4952 53.0016 60.8856 52.8541 59.7521 50.9746C59.6593 50.8211 59.0918 49.5844 56.3543 47.0434C53.4887 44.3838 53.8729 44.8141 57.3244 40.2138C59.4264 37.4122 60.2666 35.7019 60.0041 34.9694C59.7539 34.2715 58.2077 34.4559 58.2077 34.4559L53.0627 34.4877C53.0627 34.4877 52.6809 34.4358 52.3982 34.6049C52.1217 34.7704 51.9442 35.1569 51.9442 35.1569C51.9442 35.1569 51.1296 37.3247 50.0439 39.1686C47.7528 43.0589 46.8366 43.2648 46.4621 43.0229C45.5908 42.4598 45.8086 40.7613 45.8086 39.5543C45.8086 35.7841 46.3804 34.2121 44.695 33.8052C44.1357 33.6703 43.7238 33.581 42.2934 33.5664C40.4574 33.5477 38.9039 33.5721 38.0241 34.0031C37.4387 34.2897 36.9871 34.9283 37.2623 34.9651C37.6024 35.0104 38.3724 35.1729 38.7806 35.7284C39.308 36.446 39.2896 38.0567 39.2896 38.0567C39.2896 38.0567 39.5926 42.4949 38.5821 43.046C37.8886 43.4241 36.9372 42.6522 34.8946 39.1227C33.8482 37.3148 33.0579 35.3162 33.0579 35.3162C33.0579 35.3162 32.9057 34.9428 32.6339 34.7429C32.3042 34.5007 31.8436 34.4239 31.8436 34.4239L26.9542 34.4559C26.9542 34.4559 26.2204 34.4764 25.9507 34.7955C25.7108 35.0797 25.9315 35.6666 25.9315 35.6666C25.9315 35.6666 29.7591 44.6219 34.0935 49.1349C38.0683 53.2732 42.5809 53.0016 42.5809 53.0016Z" fill="white"/>
</svg>
