<svg width="86" height="86" viewBox="0 0 86 86" fill="none" xmlns="http://www.w3.org/2000/svg">
<circle cx="43" cy="43" r="43" fill="white"/>
<path d="M43 68C56.8071 68 68 56.8071 68 43C68 29.1929 56.8071 18 43 18C29.1929 18 18 29.1929 18 43C18 56.8071 29.1929 68 43 68Z" fill="#BBC0CB"/>
<path d="M51.6634 35.0409C50.0425 34.297 48.3319 33.7665 46.5745 33.4628C46.5585 33.4597 46.542 33.4618 46.5272 33.4688C46.5125 33.4757 46.5003 33.4871 46.4925 33.5014C46.2591 33.9243 46.0473 34.3588 45.8577 34.8031C43.9635 34.5154 42.0366 34.5154 40.1424 34.8031C39.952 34.3577 39.7371 33.9231 39.4988 33.5014C39.4907 33.4874 39.4784 33.4762 39.4638 33.4694C39.4492 33.4625 39.4328 33.4602 39.4168 33.4628C37.6599 33.766 35.9499 34.2965 34.3299 35.0409C34.3159 35.0468 34.3042 35.0569 34.2962 35.0697C31.0555 39.912 30.1678 44.6352 30.6033 49.2987C30.6046 49.3102 30.6081 49.3213 30.6137 49.3314C30.6193 49.3414 30.6269 49.3503 30.636 49.3573C32.5232 50.7552 34.6341 51.8223 36.8787 52.5131C36.8946 52.5178 36.9115 52.5176 36.9272 52.5124C36.9429 52.5073 36.9566 52.4975 36.9666 52.4843C37.4486 51.8281 37.8756 51.1334 38.2435 50.4071C38.2485 50.3972 38.2513 50.3862 38.2518 50.3751C38.2523 50.364 38.2505 50.3528 38.2464 50.3425C38.2423 50.3321 38.236 50.3227 38.228 50.3149C38.22 50.3071 38.2105 50.3011 38.2 50.2973C37.5265 50.04 36.8744 49.7298 36.2498 49.3695C36.2385 49.3629 36.229 49.3535 36.2221 49.3423C36.2152 49.3311 36.2112 49.3183 36.2105 49.3052C36.2097 49.2921 36.2122 49.279 36.2177 49.267C36.2232 49.2551 36.2315 49.2447 36.242 49.2367C36.3729 49.1391 36.5042 49.0365 36.6292 48.933C36.6403 48.9239 36.6537 48.9181 36.668 48.9162C36.6822 48.9143 36.6967 48.9164 36.7098 48.9223C40.8011 50.7904 45.2308 50.7904 49.2737 48.9223C49.2869 48.9159 49.3016 48.9135 49.3162 48.9152C49.3307 48.917 49.3444 48.9228 49.3558 48.932C49.4808 49.0351 49.6121 49.1386 49.7464 49.2367C49.7569 49.2446 49.7653 49.2549 49.7709 49.2668C49.7765 49.2787 49.7791 49.2918 49.7784 49.3049C49.7777 49.3181 49.7738 49.3308 49.767 49.3421C49.7603 49.3534 49.7508 49.3628 49.7396 49.3695C49.1158 49.7333 48.4625 50.0436 47.7864 50.2973C47.7759 50.3012 47.7663 50.3074 47.7583 50.3153C47.7503 50.3233 47.7441 50.3328 47.7401 50.3434C47.7361 50.3539 47.7344 50.3651 47.735 50.3764C47.7357 50.3876 47.7387 50.3986 47.7439 50.4086C48.1179 51.1309 48.5443 51.8248 49.0198 52.4848C49.0295 52.4984 49.0432 52.5086 49.0589 52.5139C49.0747 52.5192 49.0918 52.5195 49.1077 52.5145C51.3554 51.8258 53.4691 50.7586 55.3577 49.3588C55.367 49.3521 55.3747 49.3435 55.3803 49.3335C55.386 49.3236 55.3894 49.3126 55.3904 49.3012C55.9119 43.9086 54.5174 39.224 51.6941 35.0717C51.6878 35.0581 51.6769 35.0472 51.6634 35.0409ZM38.8538 46.4594C37.6219 46.4594 36.6077 45.3285 36.6077 43.9398C36.6077 42.5512 37.6028 41.4203 38.8538 41.4203C40.115 41.4203 41.1204 42.5609 41.0999 43.9398C41.1009 45.3285 40.1053 46.4594 38.8538 46.4594ZM47.1609 46.4594C45.929 46.4594 44.9148 45.3285 44.9148 43.9398C44.9148 42.5512 45.91 41.4203 47.1609 41.4203C48.4222 41.4203 49.4275 42.5609 49.407 43.9398C49.4075 45.3285 48.4222 46.4594 47.1609 46.4594Z" fill="white"/>
</svg>
