<svg width="86" height="86" viewBox="0 0 86 86" fill="none" xmlns="http://www.w3.org/2000/svg">
<circle cx="43" cy="43" r="43" fill="white"/>
<path d="M35.9 50.3H33.78V49.06C32.98 50 32.28 50.46 31.55 50.46C30.89 50.46 30.45 50.16 30.21 49.59C30.09 49.24 29.99 48.71 29.99 47.92V38.9H32.11V48.16C32.16 48.46 32.29 48.58 32.56 48.58C32.96 48.58 33.34 48.21 33.79 47.58V38.9H35.91V50.3H35.9ZM28.4 42.62C28.4 41.4 28.17 40.49 27.74 39.92C27.18 39.12 26.29 38.82 25.39 38.82C24.37 38.82 23.59 39.12 23.04 39.92C22.6 40.49 22.37 41.42 22.37 42.62V46.69C22.37 47.89 22.57 48.73 23.01 49.29C23.57 50.09 24.49 50.49 25.38 50.49C26.28 50.49 27.2 50.09 27.78 49.29C28.18 48.73 28.38 47.89 28.38 46.69V42.6L28.4 42.62ZM26.3 46.92C26.4 48.05 26.05 48.62 25.4 48.62C24.74 48.62 24.4 48.05 24.5 46.92V42.4C24.4 41.27 24.74 40.74 25.4 40.74C26.05 40.74 26.4 41.27 26.3 42.4V46.92ZM20.03 44.1V50.3H17.8V44.1C17.8 44.1 15.47 36.46 15 35.04H17.35L18.92 41L20.48 35.05H22.82L20.02 44.09" fill="#111111"/>
<path d="M57.7404 40.7C57.4104 40.7 57.0404 40.9 56.6904 41.22V48.08C57.0204 48.42 57.3904 48.58 57.7304 48.58C58.3304 48.58 58.5804 48.16 58.5804 47.03V42.17C58.5804 41.04 58.3104 40.71 57.7204 40.71L57.7404 40.7ZM66.0804 42.07C66.0804 41.02 65.8104 40.71 65.1404 40.71C64.4704 40.71 64.1804 41.01 64.1804 42.06V43.31H66.0804V42.08" fill="#E62117"/>
<path d="M70.6701 36.28C70.6701 36.28 70.3401 33.98 69.3401 32.95C68.0701 31.6 66.6401 31.6 66.0001 31.53C61.3301 31.2 54.3201 31.2 54.3201 31.2H54.3001C54.3001 31.2 47.3001 31.2 42.6301 31.53C41.9801 31.61 40.5501 31.61 39.2801 32.95C38.2801 33.97 37.9601 36.28 37.9601 36.28C37.9601 36.28 37.6201 39 37.6201 41.72V44.27C37.6201 46.99 37.9601 49.7 37.9601 49.7C37.9601 49.7 38.2801 52.02 39.2801 53.04C40.5501 54.38 42.2201 54.34 42.9601 54.4699C45.6301 54.7299 54.3101 54.8099 54.3101 54.8099C54.3101 54.8099 61.3401 54.8099 66.0101 54.4699C66.6601 54.3899 68.0801 54.3899 69.3501 53.0499C70.3501 52.0299 70.6801 49.7099 70.6801 49.7099C70.6801 49.7099 71.0001 47 71.0001 44.27V41.72C71.0001 39 70.6701 36.28 70.6701 36.28ZM44.9501 50.2999H42.7201V37.3H40.3701V35.18H47.4101V37.3H44.9601V50.2999H44.9501ZM53.0001 50.2999H50.8801V49.0599C50.0801 50 49.3801 50.4599 48.6501 50.4599C47.9901 50.4599 47.5501 50.16 47.3101 49.59C47.1901 49.24 47.0901 48.71 47.0901 47.92V39H49.2101V48.17C49.2601 48.4699 49.3901 48.59 49.6601 48.59C50.0601 48.59 50.4401 48.2199 50.8901 47.59V39H53.0001V50.2999ZM60.7001 46.92C60.7001 47.96 60.6301 48.7 60.5001 49.18C60.2201 50.02 59.6301 50.45 58.8301 50.45C58.1101 50.45 57.3701 50.01 56.6901 49.17V50.3099H54.6701V35.18H56.6701V40.1C57.3301 39.3 58.0701 38.83 58.8201 38.83C59.6201 38.83 60.1601 39.3 60.4201 40.13C60.5701 40.6 60.7001 41.33 60.7001 42.4V46.92ZM65.1601 48.59C65.6601 48.59 65.9601 48.3099 66.0601 47.76C66.0801 47.66 66.0801 47.16 66.0801 46.34H68.2001V46.66C68.2001 47.32 68.1501 47.7899 68.1301 47.99C68.0601 48.4499 67.9001 48.8599 67.6601 49.2199C67.1001 50.0399 66.2601 50.44 65.2101 50.44C64.1601 50.44 63.3601 50.06 62.7701 49.28C62.3401 48.71 62.0701 47.88 62.0701 46.68V42.72C62.0701 41.52 62.3201 40.58 62.7501 40C63.3301 39.23 64.1501 38.82 65.1701 38.82C66.1901 38.82 66.9901 39.22 67.5701 40C67.9701 40.58 68.2201 41.46 68.2201 42.67V45H64.2001V47.02C64.2001 48.07 64.5001 48.59 65.1801 48.59H65.1601Z" fill="#E62117"/>
</svg>
