<svg aria-hidden="true" style="position: absolute; width: 0; height: 0; overflow: hidden;" version="1.1" xmlns="http://www.w3.org/2000/svg" xmlns:xlink="http://www.w3.org/1999/xlink">
<defs>
<symbol id="icon-mycourse" viewBox="0 0 32 32">
<path fill="#fff" style="fill: var(--color1, #fff)" d="M32 26.666v-18.667c0-1.061-0.421-2.078-1.172-2.828s-1.768-1.172-2.828-1.172h-1.333c-0-0.619-0.144-1.23-0.42-1.784s-0.677-1.036-1.171-1.409c-0.494-0.373-1.068-0.626-1.677-0.739s-1.235-0.084-1.83 0.086l-4 1.144c-0.582 0.167-1.118 0.464-1.568 0.869-0.45-0.405-0.986-0.703-1.568-0.869l-4-1.144c-0.595-0.17-1.222-0.2-1.83-0.086s-1.183 0.366-1.677 0.739-0.895 0.855-1.171 1.409c-0.276 0.554-0.42 1.165-0.42 1.784h-1.333c-1.061 0-2.078 0.421-2.828 1.172s-1.172 1.768-1.172 2.828v18.667h14.667v2.667h-5.333v2.667h13.333v-2.667h-5.333v-2.667h14.667zM17.333 5.143c0-0.29 0.094-0.571 0.269-0.802s0.419-0.399 0.698-0.479l4-1.143c0.119-0.034 0.243-0.052 0.367-0.053 0.354 0 0.693 0.14 0.943 0.391s0.391 0.589 0.391 0.943v8.328l-6.667 1.904v-9.088zM8 3.999c0-0.206 0.048-0.41 0.141-0.594s0.226-0.345 0.391-0.469c0.165-0.124 0.356-0.208 0.559-0.246s0.412-0.028 0.61 0.029l4 1.143c0.278 0.080 0.523 0.248 0.698 0.479s0.269 0.513 0.269 0.802v9.088l-6.667-1.904v-8.328zM2.667 7.999c0-0.354 0.14-0.693 0.391-0.943s0.589-0.391 0.943-0.391h1.333v7.672l10.667 3.048 10.667-3.048v-7.672h1.333c0.354 0 0.693 0.14 0.943 0.391s0.391 0.589 0.391 0.943v16h-26.667v-16z"></path>
</symbol>
<symbol id="icon-mydonations" viewBox="0 0 43 32">
<path fill="#69cb2d" style="fill: var(--color2, #69cb2d)" d="M37.333 0h-32c-1.415 0-2.771 0.562-3.771 1.562s-1.562 2.357-1.562 3.771v26.667h42.667v-26.667c0-1.415-0.562-2.771-1.562-3.771s-2.357-1.562-3.771-1.562zM5.333 3.556h32c0.471 0 0.924 0.187 1.257 0.521s0.521 0.786 0.521 1.257v3.556h-35.556v-3.556c0-0.471 0.187-0.924 0.521-1.257s0.786-0.521 1.257-0.521zM3.556 28.444v-16h35.556v16h-35.556z"></path>
</symbol>
<symbol id="icon-mymentors" viewBox="0 0 38 32">
<path fill="#fff" style="fill: var(--color1, #fff)" d="M32.918 16.351v-2.234c0-3.744-1.487-7.335-4.135-9.983s-6.239-4.135-9.983-4.135c-3.744 0-7.335 1.487-9.983 4.135s-4.135 6.239-4.135 9.983v2.234c-1.645 0.725-2.992 1.992-3.814 3.591s-1.070 3.431-0.703 5.191c0.368 1.76 1.328 3.34 2.722 4.476s3.135 1.759 4.932 1.764c0.832 0 1.63-0.331 2.218-0.919s0.919-1.386 0.919-2.218v-9.412c0-0.832-0.331-1.63-0.919-2.218s-1.386-0.919-2.218-0.919v-1.569c0-2.912 1.157-5.705 3.216-7.764s4.852-3.216 7.764-3.216c2.912 0 5.705 1.157 7.764 3.216s3.216 4.852 3.216 7.764v1.569c-0.832 0-1.63 0.331-2.218 0.919s-0.919 1.386-0.919 2.218v9.412h-4.706c-0.416 0-0.815 0.165-1.109 0.459s-0.459 0.693-0.459 1.109c0 0.416 0.165 0.815 0.459 1.109s0.693 0.459 1.109 0.459h7.843c1.798-0.005 3.539-0.628 4.932-1.764s2.354-2.716 2.722-4.476c0.368-1.76 0.119-3.592-0.703-5.191s-2.169-2.866-3.814-3.591zM7.82 28.235c-1.248 0-2.445-0.496-3.328-1.378s-1.378-2.079-1.378-3.328 0.496-2.445 1.378-3.328c0.883-0.883 2.079-1.378 3.328-1.378v9.412zM29.781 28.235v-9.412c1.248 0 2.445 0.496 3.328 1.378s1.378 2.079 1.378 3.328-0.496 2.445-1.378 3.328c-0.883 0.883-2.080 1.378-3.328 1.378z"></path>
</symbol>
<symbol id="icon-mynotes" viewBox="0 0 32 32">
<path fill="#fff" style="fill: var(--color1, #fff)" d="M31.495 10.163l-2.161 2.161v9.009h-8v8h-18.667v-25.333c0-0.354 0.14-0.693 0.391-0.943s0.589-0.391 0.943-0.391h15.677l2.161-2.161c0.195-0.18 0.4-0.349 0.615-0.505h-18.453c-1.061 0-2.078 0.421-2.828 1.172s-1.172 1.768-1.172 2.828v28h24.552l7.448-7.448v-15.004c-0.156 0.214-0.325 0.42-0.505 0.615zM24 28.781v-4.781h4.781l-4.781 4.781z"></path>
</symbol>
<symbol id="icon-mypet" viewBox="0 0 28 32">
<path fill="#fff" style="fill: var(--color1, #fff); stroke: var(--color1, #fff)" stroke="#fff" stroke-linejoin="miter" stroke-linecap="butt" stroke-miterlimit="4" stroke-width="0.5953" d="M7.482 2.4l-0 0c-2.292 0.593-3.885 1.011-4.913 1.292-0.514 0.14-0.889 0.247-1.141 0.324-0.125 0.038-0.224 0.071-0.296 0.098-0.035 0.013-0.070 0.027-0.099 0.041-0.015 0.007-0.034 0.017-0.053 0.030-0.013 0.008-0.054 0.035-0.089 0.083-0.042 0.057-0.056 0.119-0.061 0.138l-0 0.001c-0.007 0.031-0.013 0.065-0.017 0.098-0.008 0.067-0.015 0.157-0.021 0.271-0.012 0.23-0.021 0.581-0.027 1.093-0.014 1.027-0.019 2.719-0.019 5.425v6.765l0.007 0.031 0.175 0.822c0 0 0 0 0 0.001 0.769 3.679 3.205 6.896 7.042 9.391 1.1 0.715 1.949 1.182 3.23 1.777l0 0c0.785 0.364 1.371 0.617 1.815 0.781 0.437 0.161 0.766 0.245 1.024 0.245 0.268 0 0.673-0.114 1.123-0.276 0.464-0.167 1.020-0.403 1.609-0.679 1.178-0.552 2.508-1.273 3.535-1.954l0-0c3.661-2.431 5.928-5.398 6.854-9.014v-0l0.198-0.775 0-0.037 0.020-6.902c0.010-2.864 0.012-4.598 0.002-5.629-0.005-0.514-0.013-0.858-0.025-1.080-0.006-0.11-0.013-0.198-0.022-0.264-0.005-0.033-0.011-0.067-0.019-0.099-0.006-0.024-0.022-0.079-0.062-0.132-0.031-0.042-0.067-0.068-0.082-0.078-0.019-0.013-0.038-0.023-0.053-0.031-0.030-0.015-0.064-0.029-0.098-0.043-0.069-0.027-0.164-0.059-0.284-0.096-0.241-0.075-0.603-0.178-1.109-0.316-1.012-0.276-2.612-0.695-4.999-1.31-1.752-0.454-3.361-0.865-4.542-1.163-0.59-0.149-1.074-0.269-1.415-0.352-0.17-0.041-0.306-0.074-0.403-0.096-0.048-0.011-0.088-0.020-0.118-0.026-0.015-0.003-0.030-0.006-0.044-0.008-0.007-0.001-0.016-0.002-0.026-0.003l-0.001-0c-0.005-0.001-0.029-0.003-0.057-0.001-0.023 0.002-0.042 0.005-0.046 0.006l-0.001 0c-0.013 0.002-0.027 0.005-0.041 0.008-0.030 0.006-0.069 0.015-0.117 0.027-0.096 0.023-0.232 0.056-0.402 0.098-0.34 0.084-0.822 0.206-1.41 0.355-1.176 0.299-2.778 0.711-4.523 1.161zM25.605 19.072l-0.001 0.002c-0.435 1.637-1.118 2.982-2.194 4.351l-0 0c-0.536 0.684-1.781 1.906-2.603 2.555l-0 0c-1.715 1.359-4.070 2.66-6.277 3.473l-0.002 0.001-0.449 0.168-0.693-0.259c-1.744-0.645-3.867-1.773-5.363-2.859l-0.001-0c-2.939-2.12-4.694-4.503-5.49-7.42l-0.001-0.002-0.212-0.751-0.040-13.037c0.343-0.089 2.93-0.759 5.96-1.546 1.596-0.412 3.056-0.787 4.121-1.061 0.532-0.137 0.966-0.248 1.269-0.326 0.174-0.045 0.3-0.077 0.376-0.096 0.014-0.004 0.026-0.007 0.037-0.009 0.017 0.004 0.038 0.009 0.063 0.015 0.084 0.020 0.206 0.051 0.362 0.090 0.312 0.078 0.76 0.191 1.31 0.331 1.1 0.279 2.609 0.665 4.262 1.089 0 0 0 0 0 0l5.785 1.485v13.002l-0.219 0.804z"></path>
<path fill="#fff" style="fill: var(--color1, #fff)" d="M11.597 7.457c-1.288-0.123-2.181 1.109-1.874 2.589 0.129 0.628 0.419 1.098 0.91 1.483 0.886 0.689 1.94 0.403 2.528-0.688 0.284-0.53 0.323-0.986 0.132-1.681-0.234-0.872-1.001-1.64-1.696-1.703z"></path>
<path fill="#fff" style="fill: var(--color1, #fff)" d="M6.901 10.746c-1.355 0.452-1.722 2.073-0.769 3.407 0.404 0.566 0.901 0.905 1.565 1.068 1.195 0.29 2.136-0.463 2.256-1.809 0.057-0.653-0.103-1.123-0.598-1.729-0.616-0.762-1.725-1.183-2.454-0.937z"></path>
<path fill="#fff" style="fill: var(--color1, #fff)" d="M19.557 11.065c-0.454 0.276-1 0.95-1.197 1.481-0.097 0.277-0.122 0.541-0.086 0.924 0.105 0.947 0.567 1.579 1.3 1.772 0.903 0.236 1.832-0.158 2.479-1.036 0.574-0.785 0.717-1.76 0.363-2.508-0.193-0.396-0.742-0.833-1.193-0.947-0.452-0.122-1.175 0.016-1.666 0.315z"></path>
<path fill="#fff" style="fill: var(--color1, #fff)" d="M15.344 8.327c-0.285 0.399-0.507 1.169-0.487 1.692 0.016 0.271 0.087 0.505 0.252 0.819 0.421 0.77 1.031 1.142 1.716 1.043 0.843-0.123 1.485-0.793 1.721-1.774 0.207-0.875-0.016-1.758-0.576-2.269-0.301-0.268-0.917-0.443-1.336-0.379-0.423 0.059-0.983 0.436-1.29 0.867z"></path>
<path fill="#fff" style="fill: var(--color1, #fff); stroke: var(--color1, #fff)" stroke="#fff" stroke-linejoin="miter" stroke-linecap="butt" stroke-miterlimit="4" stroke-width="0.5953" d="M19.558 22.862c-0.362 0.311-0.716 0.537-1.118 0.69s-0.836 0.226-1.35 0.251l-0.002 0c-0.367 0.016-0.609 0.020-0.877-0.021-0.262-0.040-0.541-0.121-0.986-0.255l-0.001-0c-0.565-0.172-0.879-0.244-1.161-0.242-0.277 0.002-0.549 0.074-1.029 0.253-0.275 0.102-0.477 0.167-0.729 0.203-0.244 0.034-0.524 0.040-0.953 0.040-0.436 0-0.713-0.005-0.941-0.041-0.24-0.037-0.417-0.106-0.651-0.208l-0.002-0.001c-2.14-0.953-2.911-3.169-1.831-5.171 0.392-0.729 0.909-1.273 1.676-1.767 0.232-0.152 0.359-0.25 0.467-0.369 0.11-0.122 0.21-0.277 0.368-0.559l0-0.001c0.205-0.364 0.497-0.806 0.657-0.987 0.201-0.228 0.502-0.459 0.825-0.653 0.324-0.195 0.689-0.365 1.028-0.462 1.423-0.413 3.050-0.028 4.067 0.956l0.001 0.001c0.244 0.239 0.585 0.709 0.771 1.064l0 0.001c0.211 0.406 0.397 0.625 0.59 0.756v0l0.005 0.004c1.644 1.172 2.453 2.383 2.453 3.867 0 1.059-0.414 1.911-1.28 2.653zM19.558 22.862c0 0-0 0-0 0l0-0c-0 0-0 0-0 0zM17.952 18.201l-0-0c-0.552-0.413-0.895-0.683-1.136-0.926-0.25-0.253-0.388-0.474-0.545-0.778-0.338-0.65-0.741-1.072-1.163-1.267-0.2-0.090-0.492-0.158-0.906-0.173l-0.002-0c-0.281-0.012-0.438-0.010-0.566 0.008-0.12 0.017-0.227 0.052-0.401 0.127-0.492 0.213-0.876 0.595-1.256 1.299-0.234 0.451-0.485 0.758-0.823 1.039h0l-0.005 0.004c-0.665 0.527-1.008 0.804-1.222 1.011-0.2 0.193-0.279 0.319-0.409 0.554-0.191 0.347-0.253 0.575-0.286 1-0.018 0.283-0.019 0.409 0.006 0.521s0.077 0.223 0.211 0.47l0 0c0.276 0.512 0.696 0.842 1.201 0.992 0.509 0.151 1.129 0.125 1.813-0.121l0-0c0.601-0.216 1.144-0.328 1.703-0.322 0.558 0.007 1.113 0.131 1.737 0.362 1.255 0.456 2.545-0.036 2.974-1.071 0.194-0.472 0.198-0.865 0.012-1.424-0.196-0.569-0.483-0.963-0.937-1.303z"></path>
</symbol>
<symbol id="icon-paw" viewBox="0 0 34 32">
<path fill="#69cb2d" style="fill: var(--color2, #69cb2d)" d="M12.151 0.377c-2.45-0.233-4.149 2.109-3.565 4.923 0.246 1.194 0.797 2.089 1.731 2.821 1.685 1.31 3.69 0.767 4.809-1.308 0.541-1.008 0.613-1.876 0.25-3.196-0.445-1.658-1.904-3.118-3.225-3.239z"></path>
<path fill="#69cb2d" style="fill: var(--color2, #69cb2d)" d="M3.216 6.633c-2.578 0.86-3.276 3.943-1.462 6.479 0.768 1.077 1.714 1.721 2.976 2.032 2.273 0.551 4.063-0.881 4.291-3.441 0.108-1.243-0.196-2.137-1.137-3.287-1.171-1.449-3.28-2.25-4.668-1.782z"></path>
<path fill="#69cb2d" style="fill: var(--color2, #69cb2d)" d="M27.288 7.241c-0.864 0.525-1.901 1.807-2.277 2.816-0.184 0.527-0.233 1.030-0.164 1.758 0.199 1.801 1.078 3.002 2.473 3.37 1.718 0.449 3.484-0.3 4.715-1.971 1.092-1.492 1.363-3.347 0.691-4.77-0.367-0.752-1.412-1.584-2.269-1.801-0.86-0.232-2.235 0.030-3.168 0.598z"></path>
<path fill="#69cb2d" style="fill: var(--color2, #69cb2d)" d="M19.276 2.033c-0.542 0.758-0.964 2.224-0.926 3.219 0.031 0.515 0.166 0.961 0.48 1.558 0.8 1.464 1.962 2.172 3.263 1.984 1.602-0.235 2.825-1.508 3.272-3.375 0.395-1.665-0.029-3.343-1.095-4.315-0.573-0.51-1.744-0.843-2.541-0.72-0.805 0.112-1.869 0.829-2.454 1.649z"></path>
<path fill="#69cb2d" style="fill: var(--color2, #69cb2d)" d="M27.289 29.677c-0.688 0.592-1.361 1.021-2.126 1.312-0.764 0.29-1.59 0.43-2.567 0.477l-0.003 0c-0.697 0.030-1.157 0.037-1.669-0.040-0.499-0.076-1.030-0.23-1.874-0.485-1.075-0.328-1.673-0.465-2.21-0.461-0.527 0.003-1.044 0.141-1.958 0.48-0.523 0.194-0.908 0.318-1.386 0.385-0.463 0.065-0.997 0.076-1.813 0.076-0.829 0-1.356-0.010-1.789-0.077-0.457-0.071-0.792-0.201-1.239-0.396l-0.004-0.002c-4.070-1.813-5.536-6.028-3.482-9.836 0.746-1.386 1.729-2.421 3.188-3.361 0.441-0.289 0.683-0.475 0.888-0.702 0.21-0.231 0.4-0.526 0.7-1.063l0.001-0.001c0.39-0.692 0.946-1.534 1.25-1.878 0.382-0.433 0.954-0.872 1.568-1.242 0.616-0.371 1.31-0.695 1.956-0.879 2.706-0.785 5.801-0.052 7.736 1.818l0.003 0.002c0.463 0.454 1.112 1.349 1.467 2.024l0.001 0.002c0.401 0.772 0.756 1.189 1.122 1.439l0.010 0.007c3.126 2.229 4.665 4.532 4.665 7.355 0 2.014-0.788 3.634-2.434 5.046z"></path>
<path fill="none" stroke="#69cb2d" style="stroke: var(--color2, #69cb2d)" stroke-linejoin="miter" stroke-linecap="butt" stroke-miterlimit="4" stroke-width="0.371" d="M27.289 29.677c-0.688 0.592-1.361 1.021-2.126 1.312-0.764 0.29-1.59 0.43-2.567 0.477l-0.003 0c-0.697 0.030-1.157 0.037-1.669-0.040-0.499-0.076-1.030-0.23-1.874-0.485-1.075-0.328-1.673-0.465-2.21-0.461-0.527 0.003-1.044 0.141-1.958 0.48-0.523 0.194-0.908 0.318-1.386 0.385-0.463 0.065-0.997 0.076-1.813 0.076-0.829 0-1.356-0.010-1.789-0.077-0.457-0.071-0.792-0.201-1.239-0.396l-0.004-0.002c-4.070-1.813-5.536-6.028-3.482-9.836 0.746-1.386 1.729-2.421 3.188-3.361 0.441-0.289 0.683-0.475 0.888-0.702 0.21-0.231 0.4-0.526 0.7-1.063l0.001-0.001c0.39-0.692 0.946-1.534 1.25-1.878 0.382-0.433 0.954-0.872 1.568-1.242 0.616-0.371 1.31-0.695 1.956-0.879 2.706-0.785 5.801-0.052 7.736 1.818l0.003 0.002c0.463 0.454 1.112 1.349 1.467 2.024l0.001 0.002c0.401 0.772 0.756 1.189 1.122 1.439l0.010 0.007c3.126 2.229 4.665 4.532 4.665 7.355 0 2.014-0.788 3.634-2.434 5.046zM27.289 29.677l-0.369-0.368"></path>
</symbol>
<symbol id="icon-profile" viewBox="0 0 31 32">
<path fill="#fff" style="fill: var(--color1, #fff)" d="M10.057 13.257h0c1.236 0 2.444-0.366 3.471-1.053s1.828-1.662 2.301-2.804c0.473-1.142 0.597-2.398 0.355-3.61s-0.836-2.325-1.71-3.199c-0.874-0.874-1.987-1.469-3.199-1.71s-2.468-0.117-3.61 0.356c-1.142 0.473-2.117 1.274-2.804 2.301s-1.053 2.235-1.053 3.471v0c0.002 1.656 0.66 3.245 1.832 4.416s2.759 1.83 4.416 1.832zM10.057 3.098c0.774 0 1.53 0.229 2.173 0.659s1.145 1.041 1.441 1.755 0.373 1.501 0.223 2.26c-0.151 0.759-0.523 1.456-1.070 2.002s-1.244 0.919-2.002 1.070c-0.759 0.151-1.545 0.073-2.26-0.223s-1.326-0.797-1.755-1.441c-0.43-0.643-0.659-1.399-0.659-2.173 0-1.037 0.412-2.032 1.146-2.766s1.728-1.146 2.766-1.146z"></path>
<path fill="#fff" style="fill: var(--color1, #fff)" d="M10.057 14.984c-2.464 0.003-4.827 0.983-6.57 2.726s-2.723 4.105-2.726 6.569c0 0.31 0.123 0.607 0.342 0.826s0.516 0.342 0.826 0.342 0.607-0.123 0.826-0.342c0.219-0.219 0.342-0.516 0.342-0.826 0-1.846 0.733-3.616 2.038-4.921s3.075-2.038 4.921-2.038c0.85 0 1.684 0.155 2.464 0.451l0.119 0.045 1.218-2.017-0.161-0.069c-1.14-0.486-2.376-0.744-3.64-0.746z"></path>
<path fill="none" stroke="#fff" style="stroke: var(--color1, #fff)" stroke-linejoin="round" stroke-linecap="butt" stroke-miterlimit="4" stroke-width="2.1333" d="M28.647 17.371h-13.562v9.752h13.562v-9.752z"></path>
<path fill="none" stroke="#fff" style="stroke: var(--color1, #fff)" stroke-linejoin="miter" stroke-linecap="round" stroke-miterlimit="4" stroke-width="2.1333" d="M14.172 30.324h15.39"></path>
</symbol>
<symbol id="icon-questionandanswer" viewBox="0 0 32 32">
<path fill="#fff" style="fill: var(--color1, #fff)" d="M32 21.333v10.667h-10.667c-3.94 0-7.38-2.153-9.227-5.339 1.025-0.008 2.024-0.121 2.989-0.331 1.468 1.828 3.716 3.003 6.237 3.003h8v-8c0-2.521-1.175-4.769-3.003-6.237 0.208-0.965 0.323-1.964 0.331-2.989 3.185 1.847 5.339 5.287 5.339 9.227zM16.083 23.269c-1.276 0.464-2.647 0.731-4.083 0.731h-12v-12c0-6.617 5.383-12 12-12s12 5.383 12 12c0 4.176-2.147 7.856-5.391 10.005l2.043 1.98 5.083-4.939 1.864 1.907-5.057 4.943c-0.513 0.513-1.192 0.771-1.871 0.771-0.684 0-1.368-0.26-1.889-0.781l-2.699-2.616zM12 21.333c5.145 0 9.333-4.188 9.333-9.333s-4.188-9.333-9.333-9.333c-5.145 0-9.333 4.188-9.333 9.333v9.333h9.333zM12.715 5.397c-1.181-0.215-2.377 0.108-3.285 0.871-0.909 0.763-1.429 1.88-1.429 3.065h2.667c0-0.396 0.175-0.768 0.477-1.023 0.305-0.259 0.696-0.364 1.109-0.288 0.521 0.091 0.965 0.535 1.057 1.059 0.124 0.707-0.284 1.207-0.669 1.42-1.127 0.62-1.975 2.127-1.975 3.504v0.66h2.667v-0.66c0-0.416 0.347-1.031 0.596-1.168 1.5-0.828 2.305-2.524 2.008-4.217-0.283-1.616-1.609-2.943-3.223-3.224v0.001zM10.667 18.667h2.667v-2.667h-2.667v2.667z"></path>
</symbol>
</defs>
</svg>
